<svg xmlns="http://www.w3.org/2000/svg" xmlns:xlink="http://www.w3.org/1999/xlink" viewBox="0,0,256,256" width="512px" height="512px"><g fill="#2e8b57" fill-rule="nonzero" stroke="none" stroke-width="1" stroke-linecap="butt" stroke-linejoin="miter" stroke-miterlimit="10" stroke-dasharray="" stroke-dashoffset="0" font-family="none" font-weight="none" font-size="none" text-anchor="none" style="mix-blend-mode: normal"><g transform="scale(4,4)"><path d="M30.15039,4.06836c-6.00548,0.00319 -10.31625,3.57234 -12.75,6.99609c-3.82431,5.38072 -5.39108,13.04188 -3.50586,19.07617c-1.71093,3.39912 -2.14919,6.40061 -2.30469,6.61914c-2.94,3.98 -5.58984,6.98047 -5.58984,6.98047l4.19922,14.14063h5.77148c0,0 -0.06031,-1.67141 -2.07031,-2.94141l-1.73047,-6.16016c0,0 8.12086,-1.7793 9.88086,-7.7793l1.33008,0.33984c0,0 -0.54148,2.43094 -1.52148,3.96094c1.11,1.62 5.08984,2.29883 5.08984,2.29883c0.48,2.11 2.83008,10.28125 2.83008,10.28125h5.29102c0,-1.77 -1.76953,-2.94141 -1.76953,-2.94141l-0.91016,-2.66016c1.3396,0 2.66108,-0.25354 3.91406,-0.61914l0.00195,0.01758c0.68857,-0.18016 1.38432,-0.4475 2.05078,-0.72852c0.01694,-0.00701 0.03584,-0.01249 0.05273,-0.01953c-0.00075,-0.00125 -0.0012,-0.00266 -0.00195,-0.00391c0.71767,-0.30482 1.32745,-0.59629 1.82227,-0.85352c1.48987,2.31852 4.18546,3.92773 7.26953,3.92773c4.69,0 8.5,-3.71 8.5,-8c1,-3 2,-4 2,-8c-3,2 -7,2 -7,2h-7c0,0 -4,0 -7,-2c0,3.30007 0.68657,4.60891 1.48633,6.63281l-1.92578,0.5625c-0.06647,-0.16486 -0.13631,-0.35503 -0.20117,-0.51562c-0.7,-1.73 -1.01953,-3.67023 -1.01953,-7.99023l1.41992,-0.7793c3.18,2.12 7.21023,2.08984 7.24023,2.08984h7c0.02,0 1.22047,-0.09086 2.73047,-0.38086l-4.83008,-9.61914c-12,2.48 -17.90039,-8 -17.90039,-8c-5.01719,0 -8.7198,1.39336 -11.46875,3.37109c-0.52785,-2.30466 -0.62826,-6.30719 2.77344,-11.06641c3.04,-4.253 6.52066,-4.78111 9.22266,-4.41211c1.723,0.235 3.44364,-0.41109 4.55664,-1.74609l0.63086,-0.75586c-2.3715,-0.92925 -4.56262,-1.32333 -6.56445,-1.32227zM42.21875,46.0918c0,0 0.80125,0.4092 1.78125,0.9082c0.98,0.499 1.78125,0.9082 1.78125,0.9082c-0.499,0.98 -1.70945,1.37205 -2.68945,0.87305c-0.98,-0.499 -1.37205,-1.70945 -0.87305,-2.68945zM52.78125,46.0918c0.499,0.98 0.10695,2.19045 -0.87305,2.68945c-0.98,0.499 -2.19045,0.10695 -2.68945,-0.87305c0,0 0.80125,-0.4092 1.78125,-0.9082c0.98,-0.499 1.78125,-0.9082 1.78125,-0.9082zM55.51953,52.36914c-1,1.14 -2.25016,2.06141 -3.66016,2.69141c0.46,1.61 0.80078,2.82031 0.80078,2.82031h5.28906c0,-1.77 -1.75,-2.94141 -1.75,-2.94141z"></path></g></g></svg>