<svg xmlns="http://www.w3.org/2000/svg" xmlns:xlink="http://www.w3.org/1999/xlink" viewBox="0,0,256,256" width="500px" height="500px"><g fill="#2e8b57" fill-rule="nonzero" stroke="none" stroke-width="1" stroke-linecap="butt" stroke-linejoin="miter" stroke-miterlimit="10" stroke-dasharray="" stroke-dashoffset="0" font-family="none" font-weight="none" font-size="none" text-anchor="none" style="mix-blend-mode: normal"><g transform="scale(5.12,5.12)"><path d="M5,5v40h40v-40zM22,29c0,0.552 -0.448,1 -1,1h-4.5h-0.5c-3.314,0 -6,-2.686 -6,-6v-3h5.611c-0.324,0.951 -0.611,2.17 -0.611,3.5c0,3.038 1.5,5.5 1.5,5.5c0,0 1.5,-2.462 1.5,-5.5c0,-1.247 -0.254,-2.394 -0.552,-3.317c2.613,0.649 4.552,3.004 4.552,5.817zM40,24c0,3.314 -2.686,6 -6,6h-0.5h-4.5c-0.552,0 -1,-0.448 -1,-1v-2c0,-2.813 1.939,-5.168 4.552,-5.817c-0.298,0.923 -0.552,2.07 -0.552,3.317c0,3.038 1.5,5.5 1.5,5.5c0,0 1.5,-2.462 1.5,-5.5c0,-1.33 -0.287,-2.549 -0.611,-3.5h5.611z"></path></g></g></svg>