<svg xmlns="http://www.w3.org/2000/svg" xmlns:xlink="http://www.w3.org/1999/xlink" viewBox="0,0,256,256" width="500px" height="500px"><g fill="#2e8b57" fill-rule="nonzero" stroke="none" stroke-width="1" stroke-linecap="butt" stroke-linejoin="miter" stroke-miterlimit="10" stroke-dasharray="" stroke-dashoffset="0" font-family="none" font-weight="none" font-size="none" text-anchor="none" style="mix-blend-mode: normal"><g transform="scale(5.12,5.12)"><path d="M25,2c-12.69141,0 -23,10.30859 -23,23c0,9.86328 6.23438,18.26953 14.96875,21.53125c0.04297,0.01563 0.08203,0.04688 0.125,0.0625c0.70313,0.25781 1.42188,0.5 2.15625,0.6875c0.00781,0.00391 0.01953,-0.00391 0.03125,0c0.35938,0.08984 0.73047,0.17578 1.09375,0.25c0.0625,0.01172 0.12109,0.01953 0.1875,0.03125c0.41406,0.08203 0.82813,0.16016 1.25,0.21875c0.21484,0.03125 0.4375,0.03906 0.65625,0.0625c0.0625,0.00781 0.125,0.02344 0.1875,0.03125c0.26172,0.02734 0.51172,0.04297 0.78125,0.0625c0.51563,0.03516 1.03906,0.0625 1.5625,0.0625c0.39844,0 0.79688,-0.01172 1.1875,-0.03125c0.46094,-0.02344 0.90625,-0.07812 1.34375,-0.125c0.21875,-0.02344 0.44141,-0.03125 0.65625,-0.0625c0.42188,-0.05859 0.83594,-0.13672 1.25,-0.21875c0.45703,-0.08984 0.88672,-0.16797 1.3125,-0.28125c0.73438,-0.1875 1.45313,-0.42969 2.15625,-0.6875c0.04297,-0.01562 0.08203,-0.04687 0.125,-0.0625c8.73438,-3.26172 14.96875,-11.66797 14.96875,-21.53125c0,-12.69141 -10.30859,-23 -23,-23zM25,4c11.60938,0 21,9.39063 21,21c0,6.44141 -2.87891,12.21094 -7.4375,16.0625c-0.32422,-0.76953 -0.87109,-1.82031 -1.75,-2.875c-2.80078,1.49609 -6.68359,2.8125 -11.8125,2.8125c-5.12891,0 -9.01172,-1.31641 -11.8125,-2.8125c-0.87891,1.05469 -1.42578,2.10547 -1.75,2.875c-4.55859,-3.85156 -7.4375,-9.62109 -7.4375,-16.0625c0,-11.60937 9.39063,-21 21,-21zM15.09375,10.6875l-0.6875,0.5c-1.70312,1.28516 -4.34766,4.92969 -2.53125,9.71875c-0.76562,1.34766 -2.83594,5.5 -2.875,11.03125v0.34375l0.1875,0.28125c0.19531,0.26172 4.94141,6.4375 15.8125,6.4375c10.87109,0 15.61719,-6.17578 15.8125,-6.4375l0.1875,-0.28125v-0.34375c-0.03906,-5.53125 -2.10547,-9.68359 -2.875,-11.03125c1.81641,-4.78906 -0.82812,-8.43359 -2.53125,-9.71875l-0.6875,-0.5l-4.15625,4.15625c-0.97266,-0.32031 -2.97656,-0.84375 -5.75,-0.84375c-2.77344,0 -4.77734,0.52344 -5.75,0.84375zM20,23c1.65625,0 3,1.34375 3,3c0,1.65625 -1.34375,3 -3,3c-1.65625,0 -3,-1.34375 -3,-3c0,-1.65625 1.34375,-3 3,-3zM30,23c1.65625,0 3,1.34375 3,3c0,1.65625 -1.34375,3 -3,3c-1.65625,0 -3,-1.34375 -3,-3c0,-1.65625 1.34375,-3 3,-3zM22.5,31h5l-2.5,2.5z"></path></g></g></svg>