<svg xmlns="http://www.w3.org/2000/svg" xmlns:xlink="http://www.w3.org/1999/xlink" viewBox="0,0,256,256" width="512px" height="512px"><g fill="#2e8b57" fill-rule="nonzero" stroke="none" stroke-width="1" stroke-linecap="butt" stroke-linejoin="miter" stroke-miterlimit="10" stroke-dasharray="" stroke-dashoffset="0" font-family="none" font-weight="none" font-size="none" text-anchor="none" style="mix-blend-mode: normal"><g transform="scale(4,4)"><path d="M43,7c0,0 -2,1 -2,9c0,2.38821 1.18106,4.59366 3.03516,6.08203c-5.45494,4.8653 -19.50781,-3.14665 -19.50781,27.54492l-19.52734,2.37305v1c0,1.105 0.895,2 2,2h40c0,-2.5 -2,-3 -2,-3v-11l3,1l1.73828,11.30469c0.15,0.976 0.99152,1.69531 1.97852,1.69531h4.2832c0,-2.5 -1,-3 -1,-3l1,-27c0,0 -2,1 -6.5,1c-1.222,0 -2.398,-0.22242 -3.5,-0.60742v-2.12695c1.06832,0.46624 2.25095,0.73438 3.5,0.73438c4.694,0 8.5,-3.708 8.5,-8c0,-8 -2,-9 -2,-9c-2,1 -3,3 -3,3h-7c0,0 -1,-2 -3,-3zM46,15c1.105,0 2,0.895 2,2c0,1.105 -0.895,2 -2,2c-1.105,0 -2,-0.895 -2,-2c0,-1.105 0.895,-2 2,-2zM53,15c1.105,0 2,0.895 2,2c0,1.105 -0.895,2 -2,2c-1.105,0 -2,-0.895 -2,-2c0,-1.105 0.895,-2 2,-2z"></path></g></g></svg>