<svg xmlns="http://www.w3.org/2000/svg" xmlns:xlink="http://www.w3.org/1999/xlink" viewBox="0,0,256,256" width="512px" height="512px"><g fill="#2e8b57" fill-rule="nonzero" stroke="none" stroke-width="1" stroke-linecap="butt" stroke-linejoin="miter" stroke-miterlimit="10" stroke-dasharray="" stroke-dashoffset="0" font-family="none" font-weight="none" font-size="none" text-anchor="none" style="mix-blend-mode: normal"><g transform="scale(4,4)"><path d="M30,6c-2.24,0 -16,5 -20,15c-3.21,8.02 -1.9093,19.88906 -1.2793,24.28906c0.15,0.98 0.98852,1.71094 1.97852,1.71094h1.30078c0,0 -2,-15 2,-22l1,1c0,0 -1,4.16 -1,6v26h6.03906c0,0 -0.03906,-2.40039 -2.03906,-3.40039c0,0 0,-5.59961 1,-9.59961c1,-4 5,-9 6,-13c0,0 8,0 11,5l2,21h5.96094c0,0 0.03906,-2.00039 -1.96094,-3.40039v-16.59961c0,0 8.94427,-0.99691 10.98047,-13.88477c1.25679,-1.40519 2.01953,-3.20105 2.01953,-5.11523c0,-3.33 1.41,-6.74 2,-8c-3,0 -7,2 -7,2h-7c0,0 -4,-2 -7,-2c0.59,1.26 2,4.67 2,8c0,1.80749 0.68288,3.50753 1.81641,4.875l-1.2168,1.125c-3.53,-4.38 -1.14937,-5.49008 -4.35937,-11.58008c-0.37,-0.68 -0.35063,-0.66055 -0.89062,-1.81055l1.24023,-3.5c-1.68,-1.22 -3.32984,-2.10937 -4.58984,-2.10937zM43,18c1.1,0 2,0.9 2,2c0,1.1 -0.9,2 -2,2c-1.1,0 -2,-0.9 -2,-2c0,-1.1 0.9,-2 2,-2zM50,18c1.1,0 2,0.9 2,2c0,1.1 -0.9,2 -2,2c-1.1,0 -2,-0.9 -2,-2c0,-1.1 0.9,-2 2,-2zM26.48047,33.96094c-0.68,1.81 -1.72047,3.68977 -2.73047,5.50977c-1.13,2.02 -2.28,4.10859 -2.75,5.80859v8.7207l0.30078,1.21094c0.53,1.01 0.72828,2.04977 0.73828,2.75977v0.0293h4.96094c0,-3 -2,-3.40039 -2,-3.40039v-9.59961l5.50977,-10.09961c-1.41,-0.68 -2.8893,-0.89945 -4.0293,-0.93945zM50,35.65039c-2.07,2.24 -4.30961,3.32937 -5.84961,3.85938l1.84961,18.49023h5.96094c0,0 0.03906,-2.00039 -1.96094,-3.40039z"></path></g></g></svg>