<svg xmlns="http://www.w3.org/2000/svg" xmlns:xlink="http://www.w3.org/1999/xlink" viewBox="0,0,256,256" width="512px" height="512px"><g fill="#2e8b57" fill-rule="nonzero" stroke="none" stroke-width="1" stroke-linecap="butt" stroke-linejoin="miter" stroke-miterlimit="10" stroke-dasharray="" stroke-dashoffset="0" font-family="none" font-weight="none" font-size="none" text-anchor="none" style="mix-blend-mode: normal"><g transform="scale(4,4)"><path d="M38,20c0,0 -2,1 -2,9c0,1.85081 0.71109,3.5915 1.89258,4.97461l-0.89258,0.02539c0,0 -18,-0.5 -25,6c-2.2798,2.11693 -3.48862,4.69112 -4.11133,7.10742c-2.97591,1.2955 -5.88867,4.5439 -5.88867,8.39258c0,4.5 3,8.5 9,8.5h13.55859c0.861,0 1.62448,-0.55019 1.89648,-1.36719l0.54492,-1.63281c0,0 -13.3373,-1.61747 -15.0293,-1.85547c-1.692,-0.238 -2.9707,-0.67453 -2.9707,-2.14453c0,-0.825 0.642,-2 2,-2h3.5h46.5l-0.40039,-1.60156c-0.367,-1.47 -1.53272,-2.60655 -3.01172,-2.93555l-6.58789,-1.46289l-0.73242,-11c0,0 -2.82258,1 -5.76758,1c-1.222,0 -2.398,-0.22242 -3.5,-0.60742v-2.12695c1.06832,0.46624 2.25095,0.73438 3.5,0.73438c4.694,0 8.5,-3.708 8.5,-8c0,-8 -2,-9 -2,-9c-2,1 -3,3 -3,3h-7c0,0 -1,-2 -3,-3zM41,28c1.105,0 2,0.895 2,2c0,1.105 -0.895,2 -2,2c-1.105,0 -2,-0.895 -2,-2c0,-1.105 0.895,-2 2,-2zM48,28c1.105,0 2,0.895 2,2c0,1.105 -0.895,2 -2,2c-1.105,0 -2,-0.895 -2,-2c0,-1.105 0.895,-2 2,-2z"></path></g></g></svg>