<svg xmlns="http://www.w3.org/2000/svg" xmlns:xlink="http://www.w3.org/1999/xlink" viewBox="0,0,256,256" width="512px" height="512px"><g fill="#2e8b57" fill-rule="nonzero" stroke="none" stroke-width="1" stroke-linecap="butt" stroke-linejoin="miter" stroke-miterlimit="10" stroke-dasharray="" stroke-dashoffset="0" font-family="none" font-weight="none" font-size="none" text-anchor="none" style="mix-blend-mode: normal"><g transform="scale(4,4)"><path d="M6,1c0,10.83809 5.02193,17.48237 9.02344,21.07227l-1.66016,30.82031c-0.062,1.145 0.84909,2.10742 1.99609,2.10742h5.64063c0,-2.5 -1,-3 -1,-3l2.79297,-17.14062c0,0 5.87202,5.08203 13.54102,5.08203l1.47656,6.42969c0.046,0.2 0.12256,0.39331 0.22656,0.57031l4.96289,8.05859h6c0,-2.5 -2,-3.5 -2,-3.5l-2.81836,-6.27344l-0.68164,-5.27148c4.004,-2.112 6.15116,-5.37303 7.28516,-7.95703h-4.28516c-1.222,0 -2.398,-0.22047 -3.5,-0.60547v-2.12695c1.06832,0.46624 2.25095,0.73438 3.5,0.73438c4.694,0 8.5,-3.708 8.5,-8c0,-8 -2,-9 -2,-9c-2,1 -3,3 -3,3h-7c0,0 -1,-2 -3,-3c0,0 -2,1 -2,9c0,1.02276 0.22248,2.00967 0.61523,2.92383c-6.87738,-0.74625 -9.09822,-6.92383 -16.61523,-6.92383c-1.11099,0 -2.09799,0.24315 -2.95508,0.60938c-3.77654,-2.54613 -9.2452,-7.58543 -9.9668,-15.7832c-0.091,-1.033 -0.95128,-1.82617 -1.98828,-1.82617zM43,21c1.105,0 2,0.895 2,2c0,1.105 -0.895,2 -2,2c-1.105,0 -2,-0.895 -2,-2c0,-1.105 0.895,-2 2,-2zM50,21c1.105,0 2,0.895 2,2c0,1.105 -0.895,2 -2,2c-1.105,0 -2,-0.895 -2,-2c0,-1.105 0.895,-2 2,-2zM50.13086,36.95508c-1.143,1.459 -2.59156,2.87645 -4.47656,4.06445l0.47266,3.65625l2.45313,5.46289c1.108,0.824 2.41992,2.44433 2.41992,4.86133h6c0,-2.5 -2,-3 -2,-3l-3.8125,-7.26758zM24.25586,38.32617l-2.12891,13.0625c0.467,0.733 0.87305,1.87033 0.87305,3.61133h6c0,-2.5 -1,-3 -1,-3l-0.07812,-11.82227c-1.424,-0.59 -2.67002,-1.24756 -3.66602,-1.85156z"></path></g></g></svg>