<svg xmlns="http://www.w3.org/2000/svg" xmlns:xlink="http://www.w3.org/1999/xlink" viewBox="0,0,256,256" width="500px" height="500px"><g fill="#2e8b57" fill-rule="nonzero" stroke="none" stroke-width="1" stroke-linecap="butt" stroke-linejoin="miter" stroke-miterlimit="10" stroke-dasharray="" stroke-dashoffset="0" font-family="none" font-weight="none" font-size="none" text-anchor="none" style="mix-blend-mode: normal"><g transform="scale(5.12,5.12)"><path d="M3,2c-0.553,0 -1,0.447 -1,1c0,6.974 0.93569,10.74669 1.92969,13.92969c-1.331,2.966 -1.92969,7.14531 -1.92969,10.07031c0,7.833 5.96214,14.39686 12.61914,18.00586l0.25781,0.00195c6.345,-0.793 8.62905,-3.56901 9.12305,-4.29102v-0.93555c0.18,0.063 0.35562,0.1182 0.51563,0.1582c0.159,0.04 0.32137,0.06055 0.48438,0.06055c0.163,0 0.32538,-0.02055 0.48438,-0.06055c0.16,-0.04 0.33563,-0.0952 0.51563,-0.1582v1.05078c0.218,0.501 1.77137,3.35783 9.10938,4.17383l0.27344,-0.00195c6.657,-3.608 12.61719,-10.17191 12.61719,-18.00391c0,-2.925 -0.59869,-7.10431 -1.92969,-10.07031c0.994,-3.183 1.92969,-6.95569 1.92969,-13.92969c0,-0.553 -0.447,-1 -1,-1c-7.552,0 -11.75892,2.71017 -13.16992,3.82617c-2.925,-1.277 -5.60108,-1.82617 -8.83008,-1.82617c-3.229,0 -5.90508,0.54917 -8.83008,1.82617c-1.411,-1.116 -5.61792,-3.82617 -13.16992,-3.82617zM7.09375,7.37109c2.549,0.465 4.56505,1.27597 5.87305,1.91797c-1.879,1.301 -3.56338,2.87994 -4.98438,4.71094c-0.417,-1.624 -0.73867,-3.52891 -0.88867,-6.62891zM42.88281,7.375c-0.165,2.831 -0.49439,4.913 -0.90039,6.625c-1.413,-1.811 -3.08522,-3.41898 -4.94922,-4.70898c1.308,-0.642 3.31561,-1.45002 5.84961,-1.91602zM14.375,20c0.22187,0 0.42029,0.02336 0.625,0.04102v6.75586c-3.98901,-1.01674 -4,-5.70312 -4,-5.70312c0,0 1.35,-1.09375 3.375,-1.09375zM35.625,20c2.025,0 3.375,1.09375 3.375,1.09375c0,0 -0.01099,4.68638 -4,5.70313v-6.75586c0.20471,-0.01765 0.40313,-0.04102 0.625,-0.04102zM17,20.55469c2.99841,1.4691 3,5.35156 3,5.35156c0,0 -1.18972,0.94679 -3,1.07031zM33,20.55469v6.42187c-1.81028,-0.12352 -3,-1.07031 -3,-1.07031c0,0 0.00159,-3.88246 3,-5.35156zM21,33h8c0,4 -4,5 -4,5c0,0 -4,-1 -4,-5zM24.89063,42.77344c-1.096,1.159 -3.23064,2.79066 -7.05664,3.72266c2.498,0.971 4.97602,1.50391 7.16602,1.50391c2.164,0 4.60722,-0.5217 7.07422,-1.4707c-4.164,-0.91 -6.20859,-2.54086 -7.18359,-3.75586z"></path></g></g></svg>